<svg xmlns="http://www.w3.org/2000/svg" width="1000" height="570" viewBox="0 0 1000 570">
  <rect width="1000" height="570" rx="18" fill="#f7f8fa"/>
  <style>
    .t { font-family: "SFMono-Regular", Menlo, Monaco, Consolas, "Liberation Mono", monospace; font-size: 17px; }
    .head { font-size: 18px; font-weight: 600; }
    .label { fill: #b45309; }
    .value { fill: #174a85; }
    .muted { fill: #b7c1cf; }
    .fg { fill: #1f2937; }
    .green { fill: #15803d; }
  </style>
  <g class="t">
    <text x="42" y="44" class="fg">              _</text>
    <text x="42" y="64" class="fg">   __ _ _ __ | |__</text>
    <text x="42" y="84" class="fg">  / _` | '_ \| '_ \</text>
    <text x="42" y="104" class="fg"> | (_| | |_) | | | |</text>
    <text x="42" y="124" class="fg">  \__,_| .__/|_| |_|</text>
    <text x="42" y="144" class="fg">       |_|</text>
    <text x="42" y="188" class="muted">       backend / ai / security</text>
    <text x="42" y="224" class="muted">       ┌─────────────────────┐</text>
    <text x="42" y="244" class="muted">       │  build · ship · learn │</text>
    <text x="42" y="264" class="muted">       └─────────────────────┘</text>

    <text x="405" y="42" class="head fg">{USERNAME} <tspan class="muted">────────────────────────────────────────</tspan></text>
    <text x="405" y="70" class="label">OS:</text>
    <text x="570" y="70" class="muted">..................</text>
    <text x="715" y="70" class="value">macOS</text>
    <text x="405" y="94" class="label">Education:</text>
    <text x="570" y="94" class="muted">..........</text>
    <text x="660" y="94" class="value">B.Tech Computer Science · 2027</text>
    <text x="405" y="118" class="label">Role:</text>
    <text x="570" y="118" class="muted">................</text>
    <text x="705" y="118" class="value">Backend / Full-Stack Engineer</text>
    <text x="405" y="142" class="label">Uptime:</text>
    <text x="570" y="142" class="muted">.................</text>
    <text x="715" y="142" class="value">{UPTIME}</text>

    <text x="405" y="182" class="label">Languages:</text>
    <text x="570" y="182" class="muted">..............</text>
    <text x="690" y="182" class="value">Java, Python, TypeScript, JavaScript</text>
    <text x="405" y="206" class="label">Backend:</text>
    <text x="570" y="206" class="muted">................</text>
    <text x="705" y="206" class="value">Spring Boot, Node.js, FastAPI, REST</text>
    <text x="405" y="230" class="label">AI:</text>
    <text x="570" y="230" class="muted">........................</text>
    <text x="725" y="230" class="value">LLMs, RAG, Agents, MCP</text>
    <text x="405" y="254" class="label">Security:</text>
    <text x="570" y="254" class="muted">.................</text>
    <text x="715" y="254" class="value">Cybersecurity, DevSecOps</text>
    <text x="405" y="278" class="label">Databases:</text>
    <text x="570" y="278" class="muted">..............</text>
    <text x="690" y="278" class="value">PostgreSQL, MongoDB, MySQL, Redis</text>

    <text x="405" y="322" class="fg">- Contact <tspan class="muted">──────────────────────────────────────</tspan></text>
    <text x="405" y="350" class="label">Portfolio:</text>
    <text x="570" y="350" class="muted">................</text>
    <text x="730" y="350" class="value">arsh.engineer</text>
    <text x="405" y="374" class="label">Email:</text>
    <text x="570" y="374" class="muted">....................</text>
    <text x="730" y="374" class="value">arshth134@gmail.com</text>
    <text x="405" y="398" class="label">LinkedIn:</text>
    <text x="570" y="398" class="muted">.................</text>
    <text x="760" y="398" class="value">arsh342</text>
    <text x="405" y="422" class="label">GitHub:</text>
    <text x="570" y="422" class="muted">...................</text>
    <text x="760" y="422" class="value">arsh342</text>

    <text x="405" y="462" class="fg">- GitHub Stats <tspan class="muted">──────────────────────────────────</tspan></text>
    <text x="405" y="490" class="label">Repos:</text>
    <text x="510" y="490" class="green">{REPOS}</text>
    <text x="575" y="490" class="muted">| Contributed:</text>
    <text x="705" y="490" class="green">{CONTRIBUTED}</text>
    <text x="800" y="490" class="muted">| Stars:</text>
    <text x="880" y="490" class="green">{STARS}</text>
    <text x="405" y="514" class="label">Commits:</text>
    <text x="510" y="514" class="green">{COMMITS}</text>
    <text x="575" y="514" class="muted">| Contributions:</text>
    <text x="735" y="514" class="green">{CONTRIBUTIONS}</text>
    <text x="405" y="538" class="label">Followers:</text>
    <text x="510" y="538" class="green">{FOLLOWERS}</text>
    <text x="575" y="538" class="muted">| Lines of Code:</text>
    <text x="735" y="538" class="green">{LOC}</text>
  </g>
</svg>
